#!OML:ASF F:\VICON\USERDATA\INSTALL\Justin_Nancy\Justin_Nancy.ASF
:FULLY-SPECIFIED
:DEGREES
194
root -18.722 16.9881 11.9798 -111.286 -86.0939 115.14
lowerback 11.3448 0.408779 -3.02971
upperback 0.737578 0.277266 3.00612
thorax -5.6287 0.226557 4.84404
lowerneck -17.2107 -2.19296 -7.39638
upperneck 18.5546 -1.0563 -0.559572
head 8.6997 -1.13706 0.883937
rclavicle 2.98177e-015 4.77083e-015
rhumerus -49.8864 9.52119 -91.4554
rradius 111.282
rwrist -9.96793
rhand -13.7277 24.8337
rfingers 7.12502
rthumb 12.3917 -4.77905
lclavicle 2.98177e-015 4.77083e-015
lhumerus -49.0194 -8.57042 98.6293
lradius 103.707
lwrist 19.946
lhand -11.5469 7.16582
lfingers 7.12502
lthumb 14.4936 36.6396
rfemur -23.7405 -4.65791 31.7816
rtibia 40.0357
rfoot -13.6662 -11.4549
rtoes 18.6865
lfemur -8.47952 -6.42791 -15.8147
ltibia 68.6103
lfoot 13.3332 -11.2935
ltoes -7.68755
195
root -19.0671 16.931 12.0053 -116.887 -86.9092 120.537
lowerback 11.518 0.469139 -2.22684
upperback 0.755575 0.468149 3.34629
thorax -5.7235 0.301722 4.7182
lowerneck -17.3761 -2.26497 -7.15747
upperneck 18.834 -1.1609 -0.751564
head 8.82596 -1.19928 0.764461
rclavicle -1.98785e-015 3.81667e-014
rhumerus -48.6898 9.86962 -91.3279
rradius 111.096
rwrist -10.592
rhand -13.5809 25.01
rfingers 7.12502
rthumb 12.5332 -4.59409
lclavicle -1.98785e-015 3.81667e-014
lhumerus -49.9203 -8.10119 98.7697
lradius 103.498
lwrist 19.5586
lhand -10.8787 7.05107
lfingers 7.12502
lthumb 15.1374 36.4775
rfemur -21.8361 -4.47801 32.758
rtibia 39.4766
rfoot -14.91 -13.0532
rtoes 15.4259
lfemur -10.7632 -5.50871 -14.0308
ltibia 71.2895
lfoot 11.5043 -11.0556
ltoes -8.34469
196
root -19.4083 16.8762 12.0316 -137.095 -87.9513 140.519
lowerback 11.7513 0.537636 -0.85959
upperback 0.796145 0.74389 3.74235
thorax -5.82619 0.400644 4.31488
lowerneck -17.5895 -2.44894 -7.08021
upperneck 19.0363 -1.43027 -0.666658
head 8.94194 -1.31556 0.744024
rclavicle 5.56597e-015 2.06736e-014
rhumerus -47.5647 10.0644 -91.3516
rradius 111.124
rwrist -10.8415
rhand -13.8065 25.0185
rfingers 7.12502
rthumb 12.3157 -4.59881
lclavicle 5.56597e-015 2.06736e-014
lhumerus -50.7183 -7.74393 98.8636
lradius 103.347
lwrist 19.8908
lhand -11.6038 6.88762
lfingers 7.12502
lthumb 14.4387 36.3653
rfemur -19.7662 -3.85797 34.1449
rtibia 38.7504
rfoot -16.15 -14.448
rtoes 15.2581
lfemur -13.0296 -4.37542 -11.7395
ltibia 73.7231
lfoot 9.45603 -10.894
ltoes -8.87354
197
root -19.7437 16.8312 12.0667 -183.525 -88.413 186.724
lowerback 12.0721 0.518217 0.779525
upperback 0.803575 0.945233 4.12587
thorax -5.99441 0.453029 3.75728
lowerneck -17.781 -2.53263 -7.30475
upperneck 19.2139 -1.55606 -0.236738
head 9.04633 -1.3468 0.909633
rclavicle -5.56597e-015 -7.95139e-015
rhumerus -46.6172 10.2559 -91.5927
rradius 111.263
rwrist -10.1633
rhand -14.7718 25.5636
rfingers 7.12502
rthumb 11.3848 -4.10732
lclavicle -5.56597e-015 -7.95139e-015
lhumerus -51.6807 -7.32621 98.9633
lradius 103.405
lwrist 20.4268
lhand -12.8722 6.59587
lfingers 7.12502
lthumb 13.2164 36.1569
rfemur -17.6829 -3.22982 35.6039
rtibia 38.026
rfoot -17.5448 -15.5385
rtoes 17.5784
lfemur -15.3097 -3.16498 -9.39429
ltibia 75.8351
lfoot 7.37537 -10.71
ltoes -9.94967
198
root -20.077 16.7967 12.0976 -194.994 -88.277 198.165
lowerback 12.1097 0.581675 1.2175
upperback 0.801686 1.09027 4.21554
thorax -6.01984 0.511205 3.57907
lowerneck -17.9273 -2.59276 -7.77142
upperneck 19.3124 -1.62121 0.347207
head 9.11787 -1.34765 1.17677
rclavicle -8.74653e-015 -2.54444e-014
rhumerus -45.6746 10.5247 -91.7757
rradius 111.552
rwrist -9.57048
rhand -15.2693 26.3348
rfingers 7.12502
rthumb 10.905 -3.36207
lclavicle -8.74653e-015 -2.54444e-014
lhumerus -52.5778 -6.89832 98.9402
lradius 103.637
lwrist 20.5129
lhand -13.9352 6.98483
lfingers 7.12502
lthumb 12.1916 36.6095
rfemur -15.9757 -2.69877 35.8296
rtibia 37.5258
rfoot -18.8951 -16.025
rtoes 18.8187
lfemur -17.7621 -2.05585 -8.49436
ltibia 77.438
lfoot 5.90864 -10.168
ltoes -9.59908
199
root -20.416 16.7703 12.1097 -172.168 -88.23 175.422
lowerback 11.8957 0.860948 0.316549
upperback 0.833197 1.33612 4.11577
thorax -5.89868 0.658342 3.94252
lowerneck -17.935 -2.77328 -8.08769
upperneck 19.1266 -1.84924 0.666555
head 9.07119 -1.43448 1.30826
rclavicle 7.95139e-016 7.95139e-015
rhumerus -44.741 10.577 -91.7126
rradius 112.29
rwrist -9.48712
rhand -14.7769 26.4464
rfingers 7.12502
rthumb 11.3799 -3.22485
lclavicle 7.95139e-016 7.95139e-015
lhumerus -53.3297 -6.65275 99.0518
lradius 103.863
lwrist 20.2528
lhand -14.8177 7.43013
lfingers 7.12502
lthumb 11.3406 37.1035
rfemur -14.5505 -2.17786 35.0018
rtibia 37.2501
rfoot -19.9547 -16.4862
rtoes 18.0727
lfemur -20.1556 -1.21691 -8.98113
ltibia 78.4756
lfoot 4.65768 -9.44884
ltoes -10.1006
200
root -20.7619 16.7686 12.1202 -137.991 -87.7542 141.427
lowerback 11.5241 1.22075 -1.19332
upperback 0.857589 1.61445 3.90568
thorax -5.72018 0.837392 4.53402
lowerneck -17.8484 -3.01085 -8.05143
upperneck 18.7703 -2.17323 0.576455
head 8.94647 -1.58162 1.22983
rclavicle -1.25234e-014 -2.70347e-014
rhumerus -43.9275 10.3602 -91.4759
rradius 113.187
rwrist -8.66685
rhand -14.2662 26.6581
rfingers 7.12502
rthumb 11.8724 -2.98536
lclavicle -1.25234e-014 -2.70347e-014
lhumerus -53.989 -6.6654 99.1817
lradius 104.065
lwrist 19.664
lhand -12.6581 6.76824
lfingers 7.12502
lthumb 13.4228 36.3158
rfemur -13.3382 -1.90548 33.4737
rtibia 37.1261
rfoot -20.8406 -16.6969
rtoes 17.3728
lfemur -22.5146 -0.814884 -10.3369
ltibia 78.9586
lfoot 3.73503 -8.60895
ltoes -8.59977
201
root -21.1044 16.7831 12.1465 -136.114 -87.8814 139.38
lowerback 11.5033 1.44304 -0.901932
upperback 1.01478 1.93194 3.73062
thorax -5.55422 0.979646 4.12797
lowerneck -17.8056 -3.15893 -7.3628
upperneck 18.4648 -2.50971 0.321549
head 8.8331 -1.7069 0.988805
rclavicle 9.93923e-015 -7.95139e-015
rhumerus -43.2341 10.0271 -91.6227
rradius 114.079
rwrist -7.82384
rhand -13.9605 27.0749
rfingers 7.12502
rthumb 12.1672 -2.55121
lclavicle 9.93923e-015 -7.95139e-015
lhumerus -54.4086 -6.92291 98.691
lradius 104.245
lwrist 19.2346
lhand -9.61459 6.29704
lfingers 7.12502
lthumb 16.3548 35.6275
rfemur -11.6952 -1.83033 33.1978
rtibia 36.9566
rfoot -20.7336 -16.6995
rtoes 13.8647
lfemur -24.427 -0.574434 -10.346
ltibia 79.1037
lfoot 2.81097 -8.53361
ltoes -6.61436
202
root -21.444 16.8004 12.1725 -163.208 -88.4162 166.331
lowerback 11.6405 1.77076 0.346084
upperback 0.996786 2.52763 3.83721
thorax -5.6478 1.24 3.43036
lowerneck -17.622 -3.45899 -6.91028
upperneck 18.4503 -3.04222 0.226597
head 8.80553 -1.9336 0.816555
rclavicle 2.84262e-014 3.02153e-014
rhumerus -42.9949 9.60495 -91.7434
rradius 115.208
rwrist -7.88229
rhand -14.2787 26.9516
rfingers 7.12502
rthumb 11.8604 -2.69254
lclavicle 2.84262e-014 3.02153e-014
lhumerus -55.0346 -7.39967 98.5614
lradius 104.491
lwrist 19.7874
lhand -9.14618 6.69888
lfingers 7.12502
lthumb 16.8057 35.9916
rfemur -9.98801 -1.30982 34.0515
rtibia 36.6152
rfoot -20.057 -16.9216
rtoes 9.80024
lfemur -26.3647 -0.0749634 -9.28131
ltibia 79.0355
lfoot 1.48745 -8.09273
ltoes -7.34902
203
root -21.7935 16.8314 12.1841 -174.943 -88.4054 178.323
lowerback 11.4903 2.36056 0.499018
upperback 0.67077 3.35116 3.86969
thorax -5.95097 1.64808 3.24073
lowerneck -17.2682 -3.98624 -6.76536
upperneck 18.7327 -3.87324 0.351826
head 8.86838 -2.30675 0.731057
rclavicle -7.7526e-015 -2.54444e-014
rhumerus -43.4208 9.08931 -91.5081
rradius 116.751
rwrist -8.44063
rhand -14.6772 26.569
rfingers 7.12502
rthumb 11.4761 -3.09692
lclavicle -7.7526e-015 -2.54444e-014
lhumerus -55.9898 -8.13136 98.9008
lradius 104.61
lwrist 20.385
lhand -9.16395 6.56885
lfingers 7.12502
lthumb 16.7886 35.863
rfemur -8.6168 -0.962212 34.2447
rtibia 36.017
rfoot -19.4428 -16.4705
rtoes 9.78066
lfemur -28.5663 0.498176 -9.09001
ltibia 78.5678
lfoot -0.153309 -6.83075
ltoes -12.3323
204
root -22.1527 16.8812 12.2028 -198.865 -88.4712 202.137
lowerback 11.4332 2.478 1.06432
upperback 0.811953 3.57628 4.18631
thorax -5.769 1.74064 3.22315
lowerneck -17.9733 -4.23977 -7.37087
upperneck 19.2701 -4.07006 0.675238
head 9.21121 -2.41344 0.896592
rclavicle 3.16068e-014 7.95139e-015
rhumerus -43.5195 10.2665 -90.9249
rradius 118.55
rwrist -9.84467
rhand -15.2318 26.3246
rfingers 7.12502
rthumb 10.9412 -3.37034
lclavicle 3.16068e-014 7.95139e-015
lhumerus -56.1077 -7.77788 99.1299
lradius 104.762
lwrist 20.3461
lhand -9.43632 7.38399
lfingers 7.12502
lthumb 16.5264 36.7002
rfemur -6.83461 -1.42107 34.5684
rtibia 35.2775
rfoot -19.1574 -14.7513
rtoes 14.403
lfemur -30.1051 0.755019 -8.69949
ltibia 77.6143
lfoot -1.63687 -6.23925
ltoes -16.6544
205
root -22.5132 16.9332 12.2419 -236.307 -87.7683 239.15
lowerback 11.6661 2.55044 2.84045
upperback 0.911191 3.89893 4.53779
thorax -5.71727 1.84486 2.53655
lowerneck -17.9337 -4.50746 -7.70226
upperneck 19.46 -4.36371 0.702199
head 9.29333 -2.57672 0.917857
rclavicle 5.4467e-014 2.38542e-014
rhumerus -43.6883 10.9761 -90.412
rradius 119.983
rwrist -10.9642
rhand -15.6175 26.1561
rfingers 7.12502
rthumb 10.5691 -3.5581
lclavicle 5.4467e-014 2.38542e-014
lhumerus -56.5692 -8.05258 99.6308
lradius 105.17
lwrist 20.5272
lhand -12.1075 10.0398
lfingers 7.12502
lthumb 13.9534 39.5515
rfemur -4.71696 -1.8739 35.6067
rtibia 34.6061
rfoot -18.5394 -13.8862
rtoes 15.2089
lfemur -31.1268 0.727467 -7.59701
ltibia 76.3205
lfoot -2.80524 -6.38607
ltoes -13.1877
206
root -22.8736 16.9887 12.2694 -239.106 -87.7998 241.841
lowerback 11.8514 2.84103 2.62046
upperback 0.631223 4.30296 4.8538
thorax -6.17215 2.04918 2.91508
lowerneck -17.2229 -4.70878 -7.88293
upperneck 19.5119 -4.57352 0.239964
head 9.18885 -2.74938 0.771653
rclavicle -1.72943e-014 3.18055e-015
rhumerus -43.935 11.1405 -89.7998
rradius 120.596
rwrist -11.1095
rhand -13.4748 26.1158
rfingers 7.12502
rthumb 12.6355 -3.48202
lclavicle -1.72943e-014 3.18055e-015
lhumerus -57.5844 -7.99758 100.528
lradius 105.54
lwrist 20.7669
lhand -14.5411 11.6646
lfingers 7.12502
lthumb 11.6074 41.3231
rfemur -3.03239 -1.92481 35.4348
rtibia 34.0869
rfoot -17.1316 -14.5714
rtoes 8.57116
lfemur -32.2701 0.507456 -7.99769
ltibia 74.5005
lfoot -3.50362 -6.3142
ltoes -9.1879
207
root -23.2343 17.0662 12.3052 -276.936 -88.7066 279.775
lowerback 11.4484 2.62571 2.73136
upperback 0.548613 4.0016 4.35183
thorax -5.97585 1.90155 2.38673
lowerneck -17.043 -4.83959 -7.3012
upperneck 19.669 -4.91168 0.149857
head 9.20352 -2.87763 0.604535
rclavicle -5.76476e-015 1.90833e-014
rhumerus -43.7009 10.7719 -90.3085
rradius 120.715
rwrist -10.5992
rhand -11.4529 26.6562
rfingers 7.12502
rthumb 14.5842 -2.81108
lclavicle -5.76476e-015 1.90833e-014
lhumerus -57.8918 -8.11269 100.131
lradius 105.731
lwrist 21.3393
lhand -14.636 12.227
lfingers 7.12502
lthumb 11.5158 41.8906
rfemur -2.02058 -2.56462 34.4593
rtibia 33.7136
rfoot -15.5238 -15.1137
rtoes 3.9266
lfemur -33.9965 -1.28018 -9.47552
ltibia 72.2634
lfoot -4.14203 -5.4096
ltoes -12.3509
208
root -23.6079 17.1548 12.3361 -328.861 -88.958 331.662
lowerback 11.0758 2.64576 2.52894
upperback 0.576986 3.96737 3.80837
thorax -5.70851 1.89401 1.94797
lowerneck -17.2085 -5.0663 -7.03968
upperneck 20.2325 -5.36677 0.478876
head 9.44688 -3.04171 0.603768
rclavicle -1.2921e-014 2.06736e-014
rhumerus -43.7882 10.9182 -90.6407
rradius 121.13
rwrist -10.6597
rhand -12.1858 27.1442
rfingers 7.12502
rthumb 13.878 -2.37279
lclavicle -1.2921e-014 2.06736e-014
lhumerus -58.1751 -8.50926 100.004
lradius 105.833
lwrist 21.3585
lhand -16.8062 13.0032
lfingers 7.12502
lthumb 9.42231 42.7726
rfemur -0.742713 -2.90201 33.2914
rtibia 33.3751
rfoot -13.5021 -14.8956
rtoes 1.50799
lfemur -34.9139 -2.44875 -11.003
ltibia 69.5795
lfoot -4.90208 -4.42868
ltoes -18.1245
